<svg width="316" height="104" viewBox="0 0 316 104" fill="none" xmlns="http://www.w3.org/2000/svg">
<g clip-path="url(#clip0_10_24)">
<path d="M14.5242 26.507V19.1945H21.8367V26.507H14.5242ZM50.986 19.1945H58.1977V26.507H50.986V19.1945ZM65.507 41.0312V26.507H72.8195V55.6562H65.507V62.868H58.1945V70.1805H65.507V77.493H72.8195V84.7047H58.1945V77.493H50.9828V70.1805H21.8335V77.493H14.521V84.7047H-0.00325012V77.493H7.30925V70.1805H14.521V62.868H7.30925V55.6562H-0.00325012V26.507H7.30925V41.0312H14.521V33.8195H21.8335L21.8367 26.507H29.146V33.8195H43.6703V26.507H50.986L50.9828 33.8195H58.1945V41.0312H65.507ZM29.1493 48.3437V41.0312H21.8367V48.3437H29.1493ZM50.986 48.3437V41.0312H43.6735V48.3437H50.986Z" fill="white"/>
</g>
<path d="M105.778 38.3333H107.556V40.1111H105.778V38.3333ZM107.556 38.3333H109.333V40.1111H107.556V38.3333ZM107.556 40.1111H109.333V41.8889H107.556V40.1111ZM107.556 41.8889H109.333V43.6667H107.556V41.8889ZM107.556 43.6667H109.333V45.4444H107.556V43.6667ZM107.556 45.4444H109.333V47.2222H107.556V45.4444ZM109.333 43.6667H111.111V45.4444H109.333V43.6667ZM109.333 41.8889H111.111V43.6667H109.333V41.8889ZM109.333 40.1111H111.111V41.8889H109.333V40.1111ZM109.333 38.3333H111.111V40.1111H109.333V38.3333ZM105.778 41.8889H107.556V43.6667H105.778V41.8889ZM105.778 40.1111H107.556V41.8889H105.778V40.1111ZM105.778 43.6667H107.556V45.4444H105.778V43.6667ZM105.778 45.4444H107.556V47.2222H105.778V45.4444ZM105.778 47.2222H107.556V49H105.778V47.2222ZM105.778 49H107.556V50.7778H105.778V49ZM105.778 50.7778H107.556V52.5556H105.778V50.7778ZM105.778 52.5556H107.556V54.3333H105.778V52.5556ZM105.778 54.3333H107.556V56.1111H105.778V54.3333ZM105.778 56.1111H107.556V57.8889H105.778V56.1111ZM105.778 57.8889H107.556V59.6667H105.778V57.8889ZM105.778 59.6667H107.556V61.4444H105.778V59.6667ZM107.556 59.6667H109.333V61.4444H107.556V59.6667ZM107.556 61.4444H109.333V63.2222H107.556V61.4444ZM107.556 63.2222H109.333V65H107.556V63.2222ZM105.778 63.2222H107.556V65H105.778V63.2222ZM105.778 61.4444H107.556V63.2222H105.778V61.4444ZM109.333 63.2222H111.111V65H109.333V63.2222ZM109.333 61.4444H111.111V63.2222H109.333V61.4444ZM109.333 59.6667H111.111V61.4444H109.333V59.6667ZM109.333 57.8889H111.111V59.6667H109.333V57.8889ZM109.333 56.1111H111.111V57.8889H109.333V56.1111ZM109.333 54.3333H111.111V56.1111H109.333V54.3333ZM109.333 52.5556H111.111V54.3333H109.333V52.5556ZM107.556 52.5556H109.333V54.3333H107.556V52.5556ZM107.556 50.7778H109.333V52.5556H107.556V50.7778ZM107.556 49H109.333V50.7778H107.556V49ZM107.556 47.2222H109.333V49H107.556V47.2222ZM109.333 45.4444H111.111V47.2222H109.333V45.4444ZM109.333 47.2222H111.111V49H109.333V47.2222ZM109.333 49H111.111V50.7778H109.333V49ZM109.333 50.7778H111.111V52.5556H109.333V50.7778ZM107.556 54.3333H109.333V56.1111H107.556V54.3333ZM107.556 56.1111H109.333V57.8889H107.556V56.1111ZM107.556 57.8889H109.333V59.6667H107.556V57.8889ZM130.667 38.3333H132.444V40.1111H130.667V38.3333ZM130.667 40.1111H132.444V41.8889H130.667V40.1111ZM130.667 41.8889H132.444V43.6667H130.667V41.8889ZM130.667 43.6667H132.444V45.4444H130.667V43.6667ZM130.667 45.4444H132.444V47.2222H130.667V45.4444ZM130.667 47.2222H132.444V49H130.667V47.2222ZM130.667 49H132.444V50.7778H130.667V49ZM130.667 50.7778H132.444V52.5556H130.667V50.7778ZM130.667 52.5556H132.444V54.3333H130.667V52.5556ZM130.667 54.3333H132.444V56.1111H130.667V54.3333ZM130.667 56.1111H132.444V57.8889H130.667V56.1111ZM130.667 57.8889H132.444V59.6667H130.667V57.8889ZM130.667 59.6667H132.444V61.4444H130.667V59.6667ZM130.667 61.4444H132.444V63.2222H130.667V61.4444ZM130.667 63.2222H132.444V65H130.667V63.2222ZM128.889 63.2222H130.667V65H128.889V63.2222ZM127.111 61.4444H128.889V63.2222H127.111V61.4444ZM127.111 59.6667H128.889V61.4444H127.111V59.6667ZM127.111 63.2222H128.889V65H127.111V63.2222ZM128.889 61.4444H130.667V63.2222H128.889V61.4444ZM128.889 59.6667H130.667V61.4444H128.889V59.6667ZM128.889 57.8889H130.667V59.6667H128.889V57.8889ZM128.889 56.1111H130.667V57.8889H128.889V56.1111ZM128.889 54.3333H130.667V56.1111H128.889V54.3333ZM128.889 52.5556H130.667V54.3333H128.889V52.5556ZM128.889 50.7778H130.667V52.5556H128.889V50.7778ZM128.889 49H130.667V50.7778H128.889V49ZM128.889 47.2222H130.667V49H128.889V47.2222ZM128.889 45.4444H130.667V47.2222H128.889V45.4444ZM128.889 43.6667H130.667V45.4444H128.889V43.6667ZM128.889 41.8889H130.667V43.6667H128.889V41.8889ZM128.889 40.1111H130.667V41.8889H128.889V40.1111ZM128.889 38.3333H130.667V40.1111H128.889V38.3333ZM127.111 38.3333H128.889V40.1111H127.111V38.3333ZM127.111 40.1111H128.889V41.8889H127.111V40.1111ZM127.111 41.8889H128.889V43.6667H127.111V41.8889ZM127.111 43.6667H128.889V45.4444H127.111V43.6667ZM127.111 47.2222H128.889V49H127.111V47.2222ZM127.111 49H128.889V50.7778H127.111V49ZM127.111 50.7778H128.889V52.5556H127.111V50.7778ZM127.111 52.5556H128.889V54.3333H127.111V52.5556ZM127.111 57.8889H128.889V59.6667H127.111V57.8889ZM127.111 56.1111H128.889V57.8889H127.111V56.1111ZM127.111 54.3333H128.889V56.1111H127.111V54.3333ZM127.111 45.4444H128.889V47.2222H127.111V45.4444ZM111.111 40.1111H112.889V41.8889H111.111V40.1111ZM111.111 41.8889H112.889V43.6667H111.111V41.8889ZM111.111 43.6667H112.889V45.4444H111.111V43.6667ZM111.111 45.4444H112.889V47.2222H111.111V45.4444ZM111.111 47.2222H112.889V49H111.111V47.2222ZM112.889 41.8889H114.667V43.6667H112.889V41.8889ZM112.889 43.6667H114.667V45.4444H112.889V43.6667ZM112.889 45.4444H114.667V47.2222H112.889V45.4444ZM112.889 47.2222H114.667V49H112.889V47.2222ZM112.889 49H114.667V50.7778H112.889V49ZM114.667 43.6667H116.444V45.4444H114.667V43.6667ZM114.667 45.4444H116.444V47.2222H114.667V45.4444ZM114.667 47.2222H116.444V49H114.667V47.2222ZM114.667 49H116.444V50.7778H114.667V49ZM114.667 50.7778H116.444V52.5556H114.667V50.7778ZM116.444 45.4444H118.222V47.2222H116.444V45.4444ZM116.444 47.2222H118.222V49H116.444V47.2222ZM116.444 49H118.222V50.7778H116.444V49ZM116.444 50.7778H118.222V52.5556H116.444V50.7778ZM116.444 52.5556H118.222V54.3333H116.444V52.5556ZM118.222 47.2222H120V49H118.222V47.2222ZM118.222 49H120V50.7778H118.222V49ZM118.222 50.7778H120V52.5556H118.222V50.7778ZM120 45.4444H121.778V47.2222H120V45.4444ZM120 47.2222H121.778V49H120V47.2222ZM120 49H121.778V50.7778H120V49ZM121.778 43.6667H123.556V45.4444H121.778V43.6667ZM121.778 45.4444H123.556V47.2222H121.778V45.4444ZM121.778 47.2222H123.556V49H121.778V47.2222ZM125.333 40.1111H127.111V41.8889H125.333V40.1111ZM125.333 41.8889H127.111V43.6667H125.333V41.8889ZM125.333 43.6667H127.111V45.4444H125.333V43.6667ZM125.333 45.4444H127.111V47.2222H125.333V45.4444ZM125.333 47.2222H127.111V49H125.333V47.2222ZM123.556 41.8889H125.333V43.6667H123.556V41.8889ZM123.556 43.6667H125.333V45.4444H123.556V43.6667ZM123.556 45.4444H125.333V47.2222H123.556V45.4444ZM123.556 47.2222H125.333V49H123.556V47.2222ZM123.556 49H125.333V50.7778H123.556V49ZM121.778 49H123.556V50.7778H121.778V49ZM121.778 50.7778H123.556V52.5556H121.778V50.7778ZM120 50.7778H121.778V52.5556H120V50.7778ZM120 52.5556H121.778V54.3333H120V52.5556ZM118.222 52.5556H120V54.3333H118.222V52.5556ZM118.222 54.3333H120V56.1111H118.222V54.3333ZM150.234 65H148.457V63.2222H150.234V65ZM146.679 65H144.901V63.2222H146.679V65ZM144.901 65H143.123V63.2222H144.901V65ZM143.123 65H141.345V63.2222H143.123V65ZM141.345 65H139.568V63.2222H141.345V65ZM139.568 63.2222H137.79V61.4444H139.568V63.2222ZM141.345 63.2222H139.568V61.4444H141.345V63.2222ZM143.123 63.2222H141.345V61.4444H143.123V63.2222ZM144.901 63.2222H143.123V61.4444H144.901V63.2222ZM146.679 63.2222H144.901V61.4444H146.679V63.2222ZM148.457 63.2222H146.679V61.4444H148.457V63.2222ZM150.234 63.2222H148.457V61.4444H150.234V63.2222ZM152.012 63.2222H150.234V61.4444H152.012V63.2222ZM152.012 61.4444H150.234V59.6667H152.012V61.4444ZM150.234 61.4444H148.457V59.6667H150.234V61.4444ZM153.79 61.4444H152.012V59.6667H153.79V61.4444ZM153.79 59.6667H152.012V57.8889H153.79V59.6667ZM153.79 57.8889H152.012V56.1111H153.79V57.8889ZM152.012 57.8889H150.234V56.1111H152.012V57.8889ZM150.234 57.8889H148.457V56.1111H150.234V57.8889ZM150.234 59.6667H148.457V57.8889H150.234V59.6667ZM152.012 59.6667H150.234V57.8889H152.012V59.6667ZM152.012 56.1111H150.234V54.3333H152.012V56.1111ZM152.012 54.3333H150.234V52.5556H152.012V54.3333ZM152.012 52.5556H150.234V50.7778H152.012V52.5556ZM153.79 52.5556H152.012V50.7778H153.79V52.5556ZM153.79 50.7778H152.012V49H153.79V50.7778ZM153.79 54.3333H152.012V52.5556H153.79V54.3333ZM153.79 56.1111H152.012V54.3333H153.79V56.1111ZM150.234 56.1111H148.457V54.3333H150.234V56.1111ZM150.234 54.3333H148.457V52.5556H150.234V54.3333ZM150.234 52.5556H148.457V50.7778H150.234V52.5556ZM150.234 50.7778H148.457V49H150.234V50.7778ZM152.012 50.7778H150.234V49H152.012V50.7778ZM152.012 49H150.234V47.2222H152.012V49ZM150.234 49H148.457V47.2222H150.234V49ZM148.457 49H146.679V47.2222H148.457V49ZM148.457 50.7778H146.679V49H148.457V50.7778ZM150.234 47.2222H148.457V45.4444H150.234V47.2222ZM148.457 47.2222H146.679V45.4444H148.457V47.2222ZM146.679 47.2222H144.901V45.4444H146.679V47.2222ZM144.901 47.2222H143.123V45.4444H144.901V47.2222ZM143.123 47.2222H141.345V45.4444H143.123V47.2222ZM141.345 47.2222H139.568V45.4444H141.345V47.2222ZM143.123 49H141.345V47.2222H143.123V49ZM144.901 49H143.123V47.2222H144.901V49ZM146.679 49H144.901V47.2222H146.679V49ZM141.345 49H139.568V47.2222H141.345V49ZM139.568 49H137.79V47.2222H139.568V49ZM141.345 50.7778H139.568V49H141.345V50.7778ZM143.123 50.7778H141.345V49H143.123V50.7778ZM139.568 50.7778H137.79V49H139.568V50.7778ZM137.79 50.7778H136.012V49H137.79V50.7778ZM139.568 59.6667H137.79V57.8889H139.568V59.6667ZM137.79 59.6667H136.012V57.8889H137.79V59.6667ZM137.79 61.4444H136.012V59.6667H137.79V61.4444ZM141.345 59.6667H139.568V57.8889H141.345V59.6667ZM141.345 61.4444H139.568V59.6667H141.345V61.4444ZM139.568 61.4444H137.79V59.6667H139.568V61.4444ZM146.679 50.7778H144.901V49H146.679V50.7778ZM144.901 50.7778H143.123V49H144.901V50.7778ZM139.568 57.8889H137.79V56.1111H139.568V57.8889ZM141.345 57.8889H139.568V56.1111H141.345V57.8889ZM146.679 56.1111H144.901V54.3333H146.679V56.1111ZM144.901 56.1111H143.123V54.3333H144.901V56.1111ZM143.123 56.1111H141.345V54.3333H143.123V56.1111ZM141.345 56.1111H139.568V54.3333H141.345V56.1111ZM148.457 56.1111H146.679V54.3333H148.457V56.1111ZM152.012 61.4444H153.79V63.2222H152.012V61.4444ZM152.012 63.2222H153.79V65H152.012V63.2222ZM150.234 63.2222H152.012V65H150.234V63.2222ZM146.679 52.5556H148.457V54.3333H146.679V52.5556ZM144.901 52.5556H146.679V54.3333H144.901V52.5556ZM143.123 52.5556H144.901V54.3333H143.123V52.5556ZM141.345 52.5556H143.123V54.3333H141.345V52.5556ZM139.568 52.5556H141.345V54.3333H139.568V52.5556ZM137.79 54.3333H139.568V56.1111H137.79V54.3333ZM136.012 56.1111H137.79V57.8889H136.012V56.1111ZM141.345 59.6667H143.123V61.4444H141.345V59.6667ZM143.123 59.6667H144.901V61.4444H143.123V59.6667ZM144.901 59.6667H146.679V61.4444H144.901V59.6667ZM146.679 59.6667H148.457V61.4444H146.679V59.6667ZM157.34 38.3333H159.118V40.1111H157.34V38.3333ZM159.118 38.3333H160.896V40.1111H159.118V38.3333ZM160.896 40.1111H162.674V41.8889H160.896V40.1111ZM160.896 41.8889H162.674V43.6667H160.896V41.8889ZM160.896 43.6667H162.674V45.4444H160.896V43.6667ZM160.896 45.4444H162.674V47.2222H160.896V45.4444ZM160.896 47.2222H162.674V49H160.896V47.2222ZM160.896 49H162.674V50.7778H160.896V49ZM159.118 50.7778H160.896V52.5556H159.118V50.7778ZM159.118 52.5556H160.896V54.3333H159.118V52.5556ZM159.118 49H160.896V50.7778H159.118V49ZM159.118 47.2222H160.896V49H159.118V47.2222ZM160.896 38.3333H162.674V40.1111H160.896V38.3333ZM159.118 40.1111H160.896V41.8889H159.118V40.1111ZM159.118 41.8889H160.896V43.6667H159.118V41.8889ZM157.34 41.8889H159.118V43.6667H157.34V41.8889ZM157.34 43.6667H159.118V45.4444H157.34V43.6667ZM157.34 45.4444H159.118V47.2222H157.34V45.4444ZM159.118 45.4444H160.896V47.2222H159.118V45.4444ZM159.118 43.6667H160.896V45.4444H159.118V43.6667ZM157.34 40.1111H159.118V41.8889H157.34V40.1111ZM157.34 47.2222H159.118V49H157.34V47.2222ZM157.34 49H159.118V50.7778H157.34V49ZM157.34 50.7778H159.118V52.5556H157.34V50.7778ZM157.34 52.5556H159.118V54.3333H157.34V52.5556ZM157.34 54.3333H159.118V56.1111H157.34V54.3333ZM157.34 56.1111H159.118V57.8889H157.34V56.1111ZM157.34 57.8889H159.118V59.6667H157.34V57.8889ZM157.34 59.6667H159.118V61.4444H157.34V59.6667ZM157.34 61.4444H159.118V63.2222H157.34V61.4444ZM157.34 63.2222H159.118V65H157.34V63.2222ZM159.118 63.2222H160.896V65H159.118V63.2222ZM160.896 63.2222H162.674V65H160.896V63.2222ZM160.896 61.4444H162.674V63.2222H160.896V61.4444ZM160.896 59.6667H162.674V61.4444H160.896V59.6667ZM160.896 57.8889H162.674V59.6667H160.896V57.8889ZM160.896 56.1111H162.674V57.8889H160.896V56.1111ZM160.896 54.3333H162.674V56.1111H160.896V54.3333ZM160.896 52.5556H162.674V54.3333H160.896V52.5556ZM160.896 50.7778H162.674V52.5556H160.896V50.7778ZM159.118 54.3333H160.896V56.1111H159.118V54.3333ZM159.118 56.1111H160.896V57.8889H159.118V56.1111ZM159.118 61.4444H160.896V63.2222H159.118V61.4444ZM159.118 59.6667H160.896V61.4444H159.118V59.6667ZM159.118 57.8889H160.896V59.6667H159.118V57.8889ZM162.674 54.3333H164.451V56.1111H162.674V54.3333ZM164.451 54.3333H166.229V56.1111H164.451V54.3333ZM164.451 52.5556H166.229V54.3333H164.451V52.5556ZM162.674 52.5556H164.451V54.3333H162.674V52.5556ZM162.674 56.1111H164.451V57.8889H162.674V56.1111ZM164.451 56.1111H166.229V57.8889H164.451V56.1111ZM166.229 54.3333H168.007V56.1111H166.229V54.3333ZM166.229 52.5556H168.007V54.3333H166.229V52.5556ZM164.451 50.7778H166.229V52.5556H164.451V50.7778ZM166.229 50.7778H168.007V52.5556H166.229V50.7778ZM168.007 52.5556H169.785V54.3333H168.007V52.5556ZM168.007 50.7778H169.785V52.5556H168.007V50.7778ZM168.007 49H169.785V50.7778H168.007V49ZM169.785 49H171.563V50.7778H169.785V49ZM169.785 47.2222H171.563V49H169.785V47.2222ZM168.007 47.2222H169.785V49H168.007V47.2222ZM168.007 45.4444H169.785V47.2222H168.007V45.4444ZM166.229 45.4444H168.007V47.2222H166.229V45.4444ZM166.229 47.2222H168.007V49H166.229V47.2222ZM166.229 49H168.007V50.7778H166.229V49ZM169.785 45.4444H171.563V47.2222H169.785V45.4444ZM169.785 50.7778H171.563V52.5556H169.785V50.7778ZM168.007 56.1111H169.785V57.8889H168.007V56.1111ZM166.229 56.1111H168.007V57.8889H166.229V56.1111ZM164.451 57.8889H166.229V59.6667H164.451V57.8889ZM166.229 57.8889H168.007V59.6667H166.229V57.8889ZM168.007 57.8889H169.785V59.6667H168.007V57.8889ZM169.785 57.8889H171.563V59.6667H169.785V57.8889ZM169.785 59.6667H171.563V61.4444H169.785V59.6667ZM169.785 61.4444H171.563V63.2222H169.785V61.4444ZM169.785 63.2222H171.563V65H169.785V63.2222ZM168.007 63.2222H169.785V65H168.007V63.2222ZM168.007 61.4444H169.785V63.2222H168.007V61.4444ZM168.007 59.6667H169.785V61.4444H168.007V59.6667ZM166.229 61.4444H168.007V63.2222H166.229V61.4444ZM166.229 63.2222H168.007V65H166.229V63.2222ZM166.229 59.6667H168.007V61.4444H166.229V59.6667ZM178.661 45.4444H180.439V47.2222H178.661V45.4444ZM180.439 45.4444H182.217V47.2222H180.439V45.4444ZM182.217 45.4444H183.995V47.2222H182.217V45.4444ZM183.995 45.4444H185.773V47.2222H183.995V45.4444ZM185.773 45.4444H187.55V47.2222H185.773V45.4444ZM187.55 45.4444H189.328V47.2222H187.55V45.4444ZM189.328 47.2222H191.106V49H189.328V47.2222ZM187.55 47.2222H189.328V49H187.55V47.2222ZM185.773 47.2222H187.55V49H185.773V47.2222ZM183.995 47.2222H185.773V49H183.995V47.2222ZM182.217 47.2222H183.995V49H182.217V47.2222ZM180.439 47.2222H182.217V49H180.439V47.2222ZM178.661 47.2222H180.439V49H178.661V47.2222ZM176.884 47.2222H178.661V49H176.884V47.2222ZM176.884 49H178.661V50.7778H176.884V49ZM178.661 49H180.439V50.7778H178.661V49ZM175.106 49H176.884V50.7778H175.106V49ZM175.106 50.7778H176.884V52.5556H175.106V50.7778ZM175.106 52.5556H176.884V54.3333H175.106V52.5556ZM176.884 52.5556H178.661V54.3333H176.884V52.5556ZM178.661 52.5556H180.439V54.3333H178.661V52.5556ZM178.661 50.7778H180.439V52.5556H178.661V50.7778ZM176.884 50.7778H178.661V52.5556H176.884V50.7778ZM176.884 54.3333H178.661V56.1111H176.884V54.3333ZM176.884 56.1111H178.661V57.8889H176.884V56.1111ZM176.884 57.8889H178.661V59.6667H176.884V57.8889ZM175.106 57.8889H176.884V59.6667H175.106V57.8889ZM175.106 59.6667H176.884V61.4444H175.106V59.6667ZM175.106 56.1111H176.884V57.8889H175.106V56.1111ZM175.106 54.3333H176.884V56.1111H175.106V54.3333ZM178.661 54.3333H180.439V56.1111H178.661V54.3333ZM178.661 56.1111H180.439V57.8889H178.661V56.1111ZM178.661 57.8889H180.439V59.6667H178.661V57.8889ZM178.661 59.6667H180.439V61.4444H178.661V59.6667ZM176.884 59.6667H178.661V61.4444H176.884V59.6667ZM176.884 61.4444H178.661V63.2222H176.884V61.4444ZM178.661 61.4444H180.439V63.2222H178.661V61.4444ZM180.439 61.4444H182.217V63.2222H180.439V61.4444ZM180.439 59.6667H182.217V61.4444H180.439V59.6667ZM178.661 63.2222H180.439V65H178.661V63.2222ZM180.439 63.2222H182.217V65H180.439V63.2222ZM182.217 63.2222H183.995V65H182.217V63.2222ZM183.995 63.2222H185.773V65H183.995V63.2222ZM185.773 63.2222H187.55V65H185.773V63.2222ZM187.55 63.2222H189.328V65H187.55V63.2222ZM185.773 61.4444H187.55V63.2222H185.773V61.4444ZM183.995 61.4444H185.773V63.2222H183.995V61.4444ZM182.217 61.4444H183.995V63.2222H182.217V61.4444ZM187.55 61.4444H189.328V63.2222H187.55V61.4444ZM189.328 61.4444H191.106V63.2222H189.328V61.4444ZM187.55 59.6667H189.328V61.4444H187.55V59.6667ZM185.773 59.6667H187.55V61.4444H185.773V59.6667ZM189.328 59.6667H191.106V61.4444H189.328V59.6667ZM191.106 59.6667H192.884V61.4444H191.106V59.6667ZM189.328 50.7778H191.106V52.5556H189.328V50.7778ZM191.106 50.7778H192.884V52.5556H191.106V50.7778ZM191.106 49H192.884V50.7778H191.106V49ZM187.55 50.7778H189.328V52.5556H187.55V50.7778ZM187.55 49H189.328V50.7778H187.55V49ZM189.328 49H191.106V50.7778H189.328V49ZM182.217 59.6667H183.995V61.4444H182.217V59.6667ZM183.995 59.6667H185.773V61.4444H183.995V59.6667ZM191.106 52.5556H192.884V54.3333H191.106V52.5556ZM189.328 52.5556H191.106V54.3333H189.328V52.5556ZM187.55 52.5556H189.328V54.3333H187.55V52.5556ZM182.217 54.3333H183.995V56.1111H182.217V54.3333ZM183.995 54.3333H185.773V56.1111H183.995V54.3333ZM185.773 54.3333H187.55V56.1111H185.773V54.3333ZM187.55 54.3333H189.328V56.1111H187.55V54.3333ZM189.328 54.3333H191.106V56.1111H189.328V54.3333ZM191.106 54.3333H192.884V56.1111H191.106V54.3333ZM180.439 54.3333H182.217V56.1111H180.439V54.3333ZM180.439 49H182.217V50.7778H180.439V49ZM182.217 49H183.995V50.7778H182.217V49ZM183.995 49H185.773V50.7778H183.995V49ZM185.773 49H187.55V50.7778H185.773V49ZM191.106 56.1111H192.884V57.8889H191.106V56.1111ZM189.328 56.1111H191.106V57.8889H189.328V56.1111ZM185.773 56.1111H187.55V57.8889H185.773V56.1111ZM183.995 56.1111H185.773V57.8889H183.995V56.1111ZM182.217 56.1111H183.995V57.8889H182.217V56.1111ZM180.439 56.1111H182.217V57.8889H180.439V56.1111ZM187.55 56.1111H189.328V57.8889H187.55V56.1111ZM196.434 38.3333H198.212V40.1111H196.434V38.3333ZM198.212 38.3333H199.99V40.1111H198.212V38.3333ZM198.212 40.1111H199.99V41.8889H198.212V40.1111ZM198.212 41.8889H199.99V43.6667H198.212V41.8889ZM198.212 43.6667H199.99V45.4444H198.212V43.6667ZM198.212 45.4444H199.99V47.2222H198.212V45.4444ZM199.99 43.6667H201.767V45.4444H199.99V43.6667ZM199.99 41.8889H201.767V43.6667H199.99V41.8889ZM199.99 40.1111H201.767V41.8889H199.99V40.1111ZM199.99 38.3333H201.767V40.1111H199.99V38.3333ZM196.434 41.8889H198.212V43.6667H196.434V41.8889ZM196.434 40.1111H198.212V41.8889H196.434V40.1111ZM196.434 43.6667H198.212V45.4444H196.434V43.6667ZM196.434 45.4444H198.212V47.2222H196.434V45.4444ZM196.434 47.2222H198.212V49H196.434V47.2222ZM196.434 49H198.212V50.7778H196.434V49ZM196.434 50.7778H198.212V52.5556H196.434V50.7778ZM196.434 52.5556H198.212V54.3333H196.434V52.5556ZM196.434 54.3333H198.212V56.1111H196.434V54.3333ZM196.434 56.1111H198.212V57.8889H196.434V56.1111ZM196.434 57.8889H198.212V59.6667H196.434V57.8889ZM196.434 59.6667H198.212V61.4444H196.434V59.6667ZM198.212 59.6667H199.99V61.4444H198.212V59.6667ZM198.212 61.4444H199.99V63.2222H198.212V61.4444ZM198.212 63.2222H199.99V65H198.212V63.2222ZM196.434 63.2222H198.212V65H196.434V63.2222ZM196.434 61.4444H198.212V63.2222H196.434V61.4444ZM199.99 63.2222H201.767V65H199.99V63.2222ZM199.99 61.4444H201.767V63.2222H199.99V61.4444ZM199.99 59.6667H201.767V61.4444H199.99V59.6667ZM199.99 57.8889H201.767V59.6667H199.99V57.8889ZM199.99 56.1111H201.767V57.8889H199.99V56.1111ZM199.99 54.3333H201.767V56.1111H199.99V54.3333ZM199.99 52.5556H201.767V54.3333H199.99V52.5556ZM198.212 52.5556H199.99V54.3333H198.212V52.5556ZM198.212 50.7778H199.99V52.5556H198.212V50.7778ZM198.212 49H199.99V50.7778H198.212V49ZM198.212 47.2222H199.99V49H198.212V47.2222ZM199.99 45.4444H201.767V47.2222H199.99V45.4444ZM199.99 47.2222H201.767V49H199.99V47.2222ZM199.99 49H201.767V50.7778H199.99V49ZM199.99 50.7778H201.767V52.5556H199.99V50.7778ZM198.212 54.3333H199.99V56.1111H198.212V54.3333ZM198.212 56.1111H199.99V57.8889H198.212V56.1111ZM198.212 57.8889H199.99V59.6667H198.212V57.8889ZM221.323 38.3333H223.101V40.1111H221.323V38.3333ZM221.323 40.1111H223.101V41.8889H221.323V40.1111ZM221.323 41.8889H223.101V43.6667H221.323V41.8889ZM221.323 43.6667H223.101V45.4444H221.323V43.6667ZM221.323 45.4444H223.101V47.2222H221.323V45.4444ZM221.323 47.2222H223.101V49H221.323V47.2222ZM221.323 49H223.101V50.7778H221.323V49ZM221.323 50.7778H223.101V52.5556H221.323V50.7778ZM221.323 52.5556H223.101V54.3333H221.323V52.5556ZM221.323 54.3333H223.101V56.1111H221.323V54.3333ZM221.323 56.1111H223.101V57.8889H221.323V56.1111ZM221.323 57.8889H223.101V59.6667H221.323V57.8889ZM221.323 59.6667H223.101V61.4444H221.323V59.6667ZM221.323 61.4444H223.101V63.2222H221.323V61.4444ZM221.323 63.2222H223.101V65H221.323V63.2222ZM219.545 63.2222H221.323V65H219.545V63.2222ZM217.767 61.4444H219.545V63.2222H217.767V61.4444ZM217.767 59.6667H219.545V61.4444H217.767V59.6667ZM217.767 63.2222H219.545V65H217.767V63.2222ZM219.545 61.4444H221.323V63.2222H219.545V61.4444ZM219.545 59.6667H221.323V61.4444H219.545V59.6667ZM219.545 57.8889H221.323V59.6667H219.545V57.8889ZM219.545 56.1111H221.323V57.8889H219.545V56.1111ZM219.545 54.3333H221.323V56.1111H219.545V54.3333ZM219.545 52.5556H221.323V54.3333H219.545V52.5556ZM219.545 50.7778H221.323V52.5556H219.545V50.7778ZM219.545 49H221.323V50.7778H219.545V49ZM219.545 47.2222H221.323V49H219.545V47.2222ZM219.545 45.4444H221.323V47.2222H219.545V45.4444ZM219.545 43.6667H221.323V45.4444H219.545V43.6667ZM219.545 41.8889H221.323V43.6667H219.545V41.8889ZM219.545 40.1111H221.323V41.8889H219.545V40.1111ZM219.545 38.3333H221.323V40.1111H219.545V38.3333ZM217.767 38.3333H219.545V40.1111H217.767V38.3333ZM217.767 40.1111H219.545V41.8889H217.767V40.1111ZM217.767 41.8889H219.545V43.6667H217.767V41.8889ZM217.767 43.6667H219.545V45.4444H217.767V43.6667ZM217.767 47.2222H219.545V49H217.767V47.2222ZM217.767 49H219.545V50.7778H217.767V49ZM217.767 50.7778H219.545V52.5556H217.767V50.7778ZM217.767 52.5556H219.545V54.3333H217.767V52.5556ZM217.767 57.8889H219.545V59.6667H217.767V57.8889ZM217.767 56.1111H219.545V57.8889H217.767V56.1111ZM217.767 54.3333H219.545V56.1111H217.767V54.3333ZM217.767 45.4444H219.545V47.2222H217.767V45.4444ZM201.767 40.1111H203.545V41.8889H201.767V40.1111ZM201.767 41.8889H203.545V43.6667H201.767V41.8889ZM201.767 43.6667H203.545V45.4444H201.767V43.6667ZM201.767 45.4444H203.545V47.2222H201.767V45.4444ZM201.767 47.2222H203.545V49H201.767V47.2222ZM203.545 41.8889H205.323V43.6667H203.545V41.8889ZM203.545 43.6667H205.323V45.4444H203.545V43.6667ZM203.545 45.4444H205.323V47.2222H203.545V45.4444ZM203.545 47.2222H205.323V49H203.545V47.2222ZM203.545 49H205.323V50.7778H203.545V49ZM205.323 43.6667H207.101V45.4444H205.323V43.6667ZM205.323 45.4444H207.101V47.2222H205.323V45.4444ZM205.323 47.2222H207.101V49H205.323V47.2222ZM205.323 49H207.101V50.7778H205.323V49ZM205.323 50.7778H207.101V52.5556H205.323V50.7778ZM207.101 45.4444H208.878V47.2222H207.101V45.4444ZM207.101 47.2222H208.878V49H207.101V47.2222ZM207.101 49H208.878V50.7778H207.101V49ZM207.101 50.7778H208.878V52.5556H207.101V50.7778ZM207.101 52.5556H208.878V54.3333H207.101V52.5556ZM208.878 47.2222H210.656V49H208.878V47.2222ZM208.878 49H210.656V50.7778H208.878V49ZM208.878 50.7778H210.656V52.5556H208.878V50.7778ZM210.656 45.4444H212.434V47.2222H210.656V45.4444ZM210.656 47.2222H212.434V49H210.656V47.2222ZM210.656 49H212.434V50.7778H210.656V49ZM212.434 43.6667H214.212V45.4444H212.434V43.6667ZM212.434 45.4444H214.212V47.2222H212.434V45.4444ZM212.434 47.2222H214.212V49H212.434V47.2222ZM215.99 40.1111H217.767V41.8889H215.99V40.1111ZM215.99 41.8889H217.767V43.6667H215.99V41.8889ZM215.99 43.6667H217.767V45.4444H215.99V43.6667ZM215.99 45.4444H217.767V47.2222H215.99V45.4444ZM215.99 47.2222H217.767V49H215.99V47.2222ZM214.212 41.8889H215.99V43.6667H214.212V41.8889ZM214.212 43.6667H215.99V45.4444H214.212V43.6667ZM214.212 45.4444H215.99V47.2222H214.212V45.4444ZM214.212 47.2222H215.99V49H214.212V47.2222ZM214.212 49H215.99V50.7778H214.212V49ZM212.434 49H214.212V50.7778H212.434V49ZM212.434 50.7778H214.212V52.5556H212.434V50.7778ZM210.656 50.7778H212.434V52.5556H210.656V50.7778ZM210.656 52.5556H212.434V54.3333H210.656V52.5556ZM208.878 52.5556H210.656V54.3333H208.878V52.5556ZM208.878 54.3333H210.656V56.1111H208.878V54.3333ZM226.668 45.4444H228.446V47.2222H226.668V45.4444ZM228.446 45.4444H230.224V47.2222H228.446V45.4444ZM228.446 47.2222H230.224V49H228.446V47.2222ZM230.224 47.2222H232.002V49H230.224V47.2222ZM230.224 49H232.002V50.7778H230.224V49ZM230.224 50.7778H232.002V52.5556H230.224V50.7778ZM230.224 45.4444H232.002V47.2222H230.224V45.4444ZM226.668 47.2222H228.446V49H226.668V47.2222ZM226.668 49H228.446V50.7778H226.668V49ZM226.668 50.7778H228.446V52.5556H226.668V50.7778ZM226.668 52.5556H228.446V54.3333H226.668V52.5556ZM228.446 52.5556H230.224V54.3333H228.446V52.5556ZM228.446 50.7778H230.224V52.5556H228.446V50.7778ZM228.446 49H230.224V50.7778H228.446V49ZM230.224 52.5556H232.002V54.3333H230.224V52.5556ZM230.224 54.3333H232.002V56.1111H230.224V54.3333ZM228.446 54.3333H230.224V56.1111H228.446V54.3333ZM226.668 54.3333H228.446V56.1111H226.668V54.3333ZM226.668 56.1111H228.446V57.8889H226.668V56.1111ZM228.446 56.1111H230.224V57.8889H228.446V56.1111ZM230.224 56.1111H232.002V57.8889H230.224V56.1111ZM232.002 56.1111H233.78V57.8889H232.002V56.1111ZM242.668 45.4444H244.446V47.2222H242.668V45.4444ZM240.891 45.4444H242.668V47.2222H240.891V45.4444ZM240.891 47.2222H242.668V49H240.891V47.2222ZM239.113 47.2222H240.891V49H239.113V47.2222ZM239.113 45.4444H240.891V47.2222H239.113V45.4444ZM239.113 49H240.891V50.7778H239.113V49ZM239.113 50.7778H240.891V52.5556H239.113V50.7778ZM239.113 52.5556H240.891V54.3333H239.113V52.5556ZM239.113 54.3333H240.891V56.1111H239.113V54.3333ZM240.891 54.3333H242.668V56.1111H240.891V54.3333ZM240.891 56.1111H242.668V57.8889H240.891V56.1111ZM242.668 54.3333H244.446V56.1111H242.668V54.3333ZM242.668 52.5556H244.446V54.3333H242.668V52.5556ZM242.668 50.7778H244.446V52.5556H242.668V50.7778ZM242.668 49H244.446V50.7778H242.668V49ZM242.668 47.2222H244.446V49H242.668V47.2222ZM240.891 50.7778H242.668V52.5556H240.891V50.7778ZM240.891 52.5556H242.668V54.3333H240.891V52.5556ZM240.891 49H242.668V50.7778H240.891V49ZM242.668 56.1111H244.446V57.8889H242.668V56.1111ZM240.891 57.8889H242.668V59.6667H240.891V57.8889ZM239.113 56.1111H240.891V57.8889H239.113V56.1111ZM239.113 59.6667H240.891V61.4444H239.113V59.6667ZM237.335 59.6667H239.113V61.4444H237.335V59.6667ZM237.335 61.4444H239.113V63.2222H237.335V61.4444ZM235.557 61.4444H237.335V63.2222H235.557V61.4444ZM235.557 63.2222H237.335V65H235.557V63.2222ZM233.78 63.2222H235.557V65H233.78V63.2222ZM233.78 65H235.557V66.7778H233.78V65ZM232.002 65H233.78V66.7778H232.002V65ZM232.002 66.7778H233.78V68.5556H232.002V66.7778ZM230.224 66.7778H232.002V68.5556H230.224V66.7778ZM230.224 68.5556H232.002V70.3333H230.224V68.5556ZM228.446 68.5556H230.224V70.3333H228.446V68.5556ZM226.668 68.5556H228.446V70.3333H226.668V68.5556ZM226.668 66.7778H228.446V68.5556H226.668V66.7778ZM228.446 66.7778H230.224V68.5556H228.446V66.7778ZM228.446 65H230.224V66.7778H228.446V65ZM230.224 65H232.002V66.7778H230.224V65ZM230.224 63.2222H232.002V65H230.224V63.2222ZM232.002 63.2222H233.78V65H232.002V63.2222ZM232.002 61.4444H233.78V63.2222H232.002V61.4444ZM232.002 59.6667H233.78V61.4444H232.002V59.6667ZM230.224 59.6667H232.002V61.4444H230.224V59.6667ZM230.224 57.8889H232.002V59.6667H230.224V57.8889ZM228.446 57.8889H230.224V59.6667H228.446V57.8889ZM232.002 57.8889H233.78V59.6667H232.002V57.8889ZM233.78 59.6667H235.557V61.4444H233.78V59.6667ZM233.78 61.4444H235.557V63.2222H233.78V61.4444ZM235.557 59.6667H237.335V61.4444H235.557V59.6667ZM237.335 57.8889H239.113V59.6667H237.335V57.8889ZM239.113 57.8889H240.891V59.6667H239.113V57.8889ZM235.557 57.8889H237.335V59.6667H235.557V57.8889ZM237.335 56.1111H239.113V57.8889H237.335V56.1111ZM233.78 57.8889H235.557V59.6667H233.78V57.8889ZM249.774 38.3333H251.552V40.1111H249.774V38.3333ZM249.774 40.1111H251.552V41.8889H249.774V40.1111ZM249.774 41.8889H251.552V43.6667H249.774V41.8889ZM249.774 43.6667H251.552V45.4444H249.774V43.6667ZM249.774 45.4444H251.552V47.2222H249.774V45.4444ZM249.774 47.2222H251.552V49H249.774V47.2222ZM249.774 49H251.552V50.7778H249.774V49ZM249.774 50.7778H251.552V52.5556H249.774V50.7778ZM249.774 52.5556H251.552V54.3333H249.774V52.5556ZM249.774 54.3333H251.552V56.1111H249.774V54.3333ZM249.774 56.1111H251.552V57.8889H249.774V56.1111ZM249.774 57.8889H251.552V59.6667H249.774V57.8889ZM249.774 59.6667H251.552V61.4444H249.774V59.6667ZM249.774 61.4444H251.552V63.2222H249.774V61.4444ZM249.774 63.2222H251.552V65H249.774V63.2222ZM247.997 63.2222H249.774V65H247.997V63.2222ZM247.997 61.4444H249.774V63.2222H247.997V61.4444ZM247.997 59.6667H249.774V61.4444H247.997V59.6667ZM247.997 40.1111H249.774V41.8889H247.997V40.1111ZM247.997 38.3333H249.774V40.1111H247.997V38.3333ZM247.997 41.8889H249.774V43.6667H247.997V41.8889ZM247.997 43.6667H249.774V45.4444H247.997V43.6667ZM247.997 45.4444H249.774V47.2222H247.997V45.4444ZM247.997 47.2222H249.774V49H247.997V47.2222ZM247.997 49H249.774V50.7778H247.997V49ZM247.997 50.7778H249.774V52.5556H247.997V50.7778ZM247.997 52.5556H249.774V54.3333H247.997V52.5556ZM247.997 54.3333H249.774V56.1111H247.997V54.3333ZM247.997 56.1111H249.774V57.8889H247.997V56.1111ZM247.997 57.8889H249.774V59.6667H247.997V57.8889ZM251.552 63.2222H253.33V65H251.552V63.2222ZM251.552 61.4444H253.33V63.2222H251.552V61.4444ZM251.552 59.6667H253.33V61.4444H251.552V59.6667ZM251.552 57.8889H253.33V59.6667H251.552V57.8889ZM251.552 54.3333H253.33V56.1111H251.552V54.3333ZM251.552 52.5556H253.33V54.3333H251.552V52.5556ZM251.552 50.7778H253.33V52.5556H251.552V50.7778ZM251.552 49H253.33V50.7778H251.552V49ZM251.552 47.2222H253.33V49H251.552V47.2222ZM251.552 45.4444H253.33V47.2222H251.552V45.4444ZM251.552 38.3333H253.33V40.1111H251.552V38.3333ZM251.552 40.1111H253.33V41.8889H251.552V40.1111ZM251.552 41.8889H253.33V43.6667H251.552V41.8889ZM251.552 43.6667H253.33V45.4444H251.552V43.6667ZM251.552 56.1111H253.33V57.8889H251.552V56.1111ZM253.33 63.2222H255.108V65H253.33V63.2222ZM255.108 63.2222H256.885V65H255.108V63.2222ZM256.885 63.2222H258.663V65H256.885V63.2222ZM256.885 61.4444H258.663V63.2222H256.885V61.4444ZM256.885 59.6667H258.663V61.4444H256.885V59.6667ZM255.108 59.6667H256.885V61.4444H255.108V59.6667ZM255.108 61.4444H256.885V63.2222H255.108V61.4444ZM253.33 61.4444H255.108V63.2222H253.33V61.4444ZM253.33 59.6667H255.108V61.4444H253.33V59.6667ZM258.663 59.6667H260.441V61.4444H258.663V59.6667ZM258.663 61.4444H260.441V63.2222H258.663V61.4444ZM258.663 63.2222H260.441V65H258.663V63.2222ZM260.441 63.2222H262.219V65H260.441V63.2222ZM260.441 61.4444H262.219V63.2222H260.441V61.4444ZM260.441 59.6667H262.219V61.4444H260.441V59.6667ZM265.762 38.3333H267.54V40.1111H265.762V38.3333ZM265.762 40.1111H267.54V41.8889H265.762V40.1111ZM265.762 41.8889H267.54V43.6667H265.762V41.8889ZM265.762 47.2222H267.54V49H265.762V47.2222ZM265.762 49H267.54V50.7778H265.762V49ZM265.762 50.7778H267.54V52.5556H265.762V50.7778ZM265.762 52.5556H267.54V54.3333H265.762V52.5556ZM265.762 54.3333H267.54V56.1111H265.762V54.3333ZM265.762 56.1111H267.54V57.8889H265.762V56.1111ZM265.762 57.8889H267.54V59.6667H265.762V57.8889ZM265.762 59.6667H267.54V61.4444H265.762V59.6667ZM265.762 61.4444H267.54V63.2222H265.762V61.4444ZM265.762 63.2222H267.54V65H265.762V63.2222ZM267.54 63.2222H269.318V65H267.54V63.2222ZM269.318 63.2222H271.095V65H269.318V63.2222ZM269.318 61.4444H271.095V63.2222H269.318V61.4444ZM269.318 59.6667H271.095V61.4444H269.318V59.6667ZM269.318 57.8889H271.095V59.6667H269.318V57.8889ZM269.318 56.1111H271.095V57.8889H269.318V56.1111ZM269.318 54.3333H271.095V56.1111H269.318V54.3333ZM269.318 52.5556H271.095V54.3333H269.318V52.5556ZM269.318 50.7778H271.095V52.5556H269.318V50.7778ZM269.318 49H271.095V50.7778H269.318V49ZM269.318 38.3333H271.095V40.1111H269.318V38.3333ZM267.54 38.3333H269.318V40.1111H267.54V38.3333ZM267.54 40.1111H269.318V41.8889H267.54V40.1111ZM269.318 40.1111H271.095V41.8889H269.318V40.1111ZM269.318 41.8889H271.095V43.6667H269.318V41.8889ZM269.318 47.2222H271.095V49H269.318V47.2222ZM267.54 41.8889H269.318V43.6667H267.54V41.8889ZM267.54 47.2222H269.318V49H267.54V47.2222ZM267.54 49H269.318V50.7778H267.54V49ZM267.54 61.4444H269.318V63.2222H267.54V61.4444ZM267.54 59.6667H269.318V61.4444H267.54V59.6667ZM267.54 57.8889H269.318V59.6667H267.54V57.8889ZM267.54 56.1111H269.318V57.8889H267.54V56.1111ZM267.54 54.3333H269.318V56.1111H267.54V54.3333ZM267.54 52.5556H269.318V54.3333H267.54V52.5556ZM267.54 50.7778H269.318V52.5556H267.54V50.7778ZM278.224 45.4444H280.002V47.2222H278.224V45.4444ZM276.446 47.2222H278.224V49H276.446V47.2222ZM276.446 49H278.224V50.7778H276.446V49ZM274.668 47.2222H276.446V49H274.668V47.2222ZM274.668 45.4444H276.446V47.2222H274.668V45.4444ZM276.446 45.4444H278.224V47.2222H276.446V45.4444ZM276.446 50.7778H278.224V52.5556H276.446V50.7778ZM274.668 50.7778H276.446V52.5556H274.668V50.7778ZM274.668 52.5556H276.446V54.3333H274.668V52.5556ZM274.668 49H276.446V50.7778H274.668V49ZM274.668 54.3333H276.446V56.1111H274.668V54.3333ZM274.668 56.1111H276.446V57.8889H274.668V56.1111ZM274.668 57.8889H276.446V59.6667H274.668V57.8889ZM274.668 59.6667H276.446V61.4444H274.668V59.6667ZM274.668 61.4444H276.446V63.2222H274.668V61.4444ZM276.446 61.4444H278.224V63.2222H276.446V61.4444ZM278.224 61.4444H280.002V63.2222H278.224V61.4444ZM278.224 63.2222H280.002V65H278.224V63.2222ZM276.446 63.2222H278.224V65H276.446V63.2222ZM274.668 63.2222H276.446V65H274.668V63.2222ZM278.224 59.6667H280.002V61.4444H278.224V59.6667ZM278.224 57.8889H280.002V59.6667H278.224V57.8889ZM278.224 56.1111H280.002V57.8889H278.224V56.1111ZM278.224 54.3333H280.002V56.1111H278.224V54.3333ZM278.224 52.5556H280.002V54.3333H278.224V52.5556ZM278.224 50.7778H280.002V52.5556H278.224V50.7778ZM278.224 49H280.002V50.7778H278.224V49ZM278.224 47.2222H280.002V49H278.224V47.2222ZM276.446 52.5556H278.224V54.3333H276.446V52.5556ZM276.446 56.1111H278.224V57.8889H276.446V56.1111ZM276.446 57.8889H278.224V59.6667H276.446V57.8889ZM276.446 59.6667H278.224V61.4444H276.446V59.6667ZM276.446 54.3333H278.224V56.1111H276.446V54.3333ZM287.113 63.2222H288.891V65H287.113V63.2222ZM288.891 63.2222H290.668V65H288.891V63.2222ZM288.891 61.4444H290.668V63.2222H288.891V61.4444ZM288.891 59.6667H290.668V61.4444H288.891V59.6667ZM288.891 57.8889H290.668V59.6667H288.891V57.8889ZM290.668 57.8889H292.446V59.6667H290.668V57.8889ZM290.668 56.1111H292.446V57.8889H290.668V56.1111ZM290.668 59.6667H292.446V61.4444H290.668V59.6667ZM290.668 61.4444H292.446V63.2222H290.668V61.4444ZM290.668 63.2222H292.446V65H290.668V63.2222ZM287.113 61.4444H288.891V63.2222H287.113V61.4444ZM287.113 59.6667H288.891V61.4444H287.113V59.6667ZM287.113 57.8889H288.891V59.6667H287.113V57.8889ZM287.113 56.1111H288.891V57.8889H287.113V56.1111ZM287.113 54.3333H288.891V56.1111H287.113V54.3333ZM287.113 52.5556H288.891V54.3333H287.113V52.5556ZM287.113 50.7778H288.891V52.5556H287.113V50.7778ZM287.113 49H288.891V50.7778H287.113V49ZM287.113 47.2222H288.891V49H287.113V47.2222ZM285.335 47.2222H287.113V49H285.335V47.2222ZM283.557 47.2222H285.335V49H283.557V47.2222ZM288.891 49H290.668V50.7778H288.891V49ZM288.891 50.7778H290.668V52.5556H288.891V50.7778ZM288.891 52.5556H290.668V54.3333H288.891V52.5556ZM288.891 54.3333H290.668V56.1111H288.891V54.3333ZM288.891 56.1111H290.668V57.8889H288.891V56.1111ZM290.668 54.3333H292.446V56.1111H290.668V54.3333ZM290.668 52.5556H292.446V54.3333H290.668V52.5556ZM290.668 50.7778H292.446V52.5556H290.668V50.7778ZM290.668 49H292.446V50.7778H290.668V49ZM288.891 47.2222H290.668V49H288.891V47.2222ZM287.113 45.4444H288.891V47.2222H287.113V45.4444ZM285.335 45.4444H287.113V47.2222H285.335V45.4444ZM283.557 45.4444H285.335V47.2222H283.557V45.4444ZM281.78 45.4444H283.557V47.2222H281.78V45.4444ZM281.78 47.2222H283.557V49H281.78V47.2222ZM280.002 47.2222H281.78V49H280.002V47.2222ZM280.002 49H281.78V50.7778H280.002V49ZM281.78 49H283.557V50.7778H281.78V49ZM283.557 49H285.335V50.7778H283.557V49ZM285.335 49H287.113V50.7778H285.335V49ZM280.002 50.7778H281.78V52.5556H280.002V50.7778ZM299.552 45.4444H301.33V47.2222H299.552V45.4444ZM301.33 45.4444H303.108V47.2222H301.33V45.4444ZM303.108 45.4444H304.885V47.2222H303.108V45.4444ZM304.885 45.4444H306.663V47.2222H304.885V45.4444ZM306.663 45.4444H308.441V47.2222H306.663V45.4444ZM308.441 45.4444H310.219V47.2222H308.441V45.4444ZM310.219 47.2222H311.997V49H310.219V47.2222ZM308.441 47.2222H310.219V49H308.441V47.2222ZM306.663 47.2222H308.441V49H306.663V47.2222ZM304.885 47.2222H306.663V49H304.885V47.2222ZM303.108 47.2222H304.885V49H303.108V47.2222ZM301.33 47.2222H303.108V49H301.33V47.2222ZM299.552 47.2222H301.33V49H299.552V47.2222ZM297.774 47.2222H299.552V49H297.774V47.2222ZM297.774 49H299.552V50.7778H297.774V49ZM299.552 49H301.33V50.7778H299.552V49ZM295.997 49H297.774V50.7778H295.997V49ZM295.997 50.7778H297.774V52.5556H295.997V50.7778ZM295.997 52.5556H297.774V54.3333H295.997V52.5556ZM297.774 52.5556H299.552V54.3333H297.774V52.5556ZM299.552 52.5556H301.33V54.3333H299.552V52.5556ZM299.552 50.7778H301.33V52.5556H299.552V50.7778ZM297.774 50.7778H299.552V52.5556H297.774V50.7778ZM297.774 54.3333H299.552V56.1111H297.774V54.3333ZM297.774 56.1111H299.552V57.8889H297.774V56.1111ZM297.774 57.8889H299.552V59.6667H297.774V57.8889ZM295.997 57.8889H297.774V59.6667H295.997V57.8889ZM295.997 59.6667H297.774V61.4444H295.997V59.6667ZM295.997 56.1111H297.774V57.8889H295.997V56.1111ZM295.997 54.3333H297.774V56.1111H295.997V54.3333ZM299.552 54.3333H301.33V56.1111H299.552V54.3333ZM299.552 56.1111H301.33V57.8889H299.552V56.1111ZM299.552 57.8889H301.33V59.6667H299.552V57.8889ZM299.552 59.6667H301.33V61.4444H299.552V59.6667ZM297.774 59.6667H299.552V61.4444H297.774V59.6667ZM297.774 61.4444H299.552V63.2222H297.774V61.4444ZM299.552 61.4444H301.33V63.2222H299.552V61.4444ZM301.33 61.4444H303.108V63.2222H301.33V61.4444ZM301.33 59.6667H303.108V61.4444H301.33V59.6667ZM299.552 63.2222H301.33V65H299.552V63.2222ZM301.33 63.2222H303.108V65H301.33V63.2222ZM303.108 63.2222H304.885V65H303.108V63.2222ZM304.885 63.2222H306.663V65H304.885V63.2222ZM306.663 63.2222H308.441V65H306.663V63.2222ZM308.441 63.2222H310.219V65H308.441V63.2222ZM306.663 61.4444H308.441V63.2222H306.663V61.4444ZM304.885 61.4444H306.663V63.2222H304.885V61.4444ZM303.108 61.4444H304.885V63.2222H303.108V61.4444ZM308.441 61.4444H310.219V63.2222H308.441V61.4444ZM310.219 61.4444H311.997V63.2222H310.219V61.4444ZM308.441 59.6667H310.219V61.4444H308.441V59.6667ZM306.663 59.6667H308.441V61.4444H306.663V59.6667ZM310.219 59.6667H311.997V61.4444H310.219V59.6667ZM311.997 59.6667H313.774V61.4444H311.997V59.6667ZM310.219 50.7778H311.997V52.5556H310.219V50.7778ZM311.997 50.7778H313.774V52.5556H311.997V50.7778ZM311.997 49H313.774V50.7778H311.997V49ZM308.441 50.7778H310.219V52.5556H308.441V50.7778ZM308.441 49H310.219V50.7778H308.441V49ZM310.219 49H311.997V50.7778H310.219V49ZM303.108 59.6667H304.885V61.4444H303.108V59.6667ZM304.885 59.6667H306.663V61.4444H304.885V59.6667ZM311.997 52.5556H313.774V54.3333H311.997V52.5556ZM310.219 52.5556H311.997V54.3333H310.219V52.5556ZM308.441 52.5556H310.219V54.3333H308.441V52.5556ZM303.108 54.3333H304.885V56.1111H303.108V54.3333ZM304.885 54.3333H306.663V56.1111H304.885V54.3333ZM306.663 54.3333H308.441V56.1111H306.663V54.3333ZM308.441 54.3333H310.219V56.1111H308.441V54.3333ZM310.219 54.3333H311.997V56.1111H310.219V54.3333ZM311.997 54.3333H313.774V56.1111H311.997V54.3333ZM301.33 54.3333H303.108V56.1111H301.33V54.3333ZM301.33 49H303.108V50.7778H301.33V49ZM303.108 49H304.885V50.7778H303.108V49ZM304.885 49H306.663V50.7778H304.885V49ZM306.663 49H308.441V50.7778H306.663V49ZM311.997 56.1111H313.774V57.8889H311.997V56.1111ZM310.219 56.1111H311.997V57.8889H310.219V56.1111ZM306.663 56.1111H308.441V57.8889H306.663V56.1111ZM304.885 56.1111H306.663V57.8889H304.885V56.1111ZM303.108 56.1111H304.885V57.8889H303.108V56.1111ZM301.33 56.1111H303.108V57.8889H301.33V56.1111ZM308.441 56.1111H310.219V57.8889H308.441V56.1111Z" fill="white"/>
<defs>
<clipPath id="clip0_10_24">
<rect width="104" height="104" fill="white"/>
</clipPath>
</defs>
</svg>
