<svg width="73" height="66" viewBox="0 0 73 66" fill="none" xmlns="http://www.w3.org/2000/svg">
<path d="M14.5242 7.50699V0.194489H21.8368V7.50699H14.5242ZM50.986 0.194489H58.1977V7.50699H50.986V0.194489ZM65.507 22.0312V7.50699H72.8195V36.6562H65.507V43.868H58.1945V51.1805H65.507V58.493H72.8195V65.7047H58.1945V58.493H50.9828V51.1805H21.8335V58.493H14.521V65.7047H-0.00325012V58.493H7.30925V51.1805H14.521V43.868H7.30925V36.6562H-0.00325012V7.50699H7.30925V22.0312H14.521V14.8195H21.8335L21.8368 7.50699H29.146V14.8195H43.6703V7.50699H50.986L50.9828 14.8195H58.1945V22.0312H65.507ZM29.1493 29.3437V22.0312H21.8368V29.3437H29.1493ZM50.986 29.3437V22.0312H43.6735V29.3437H50.986Z" fill="white"/>
</svg>
